STARTFONT 2.1
FONT -Adobe-Times-Bold-I-Normal--17-120-100-100-P-86-ISO8859-2
SIZE 12 100 100
FONTBOUNDINGBOX 19 19 -3 -4
COMMENT $XConsortium: timBI12.bdf,v 1.7 95/01/26 17:58:35 gildea Exp $
COMMENT 
COMMENT +
COMMENT  Copyright 1984-1989, 1994 Adobe Systems Incorporated.
COMMENT  Copyright 1988, 1994 Digital Equipment Corporation.
COMMENT
COMMENT  Adobe is a trademark of Adobe Systems Incorporated which may be
COMMENT  registered in certain jurisdictions.
COMMENT  Permission to use these trademarks is hereby granted only in
COMMENT  association with the images described in this file.
COMMENT
COMMENT  Permission to use, copy, modify, distribute and sell this software
COMMENT  and its documentation for any purpose and without fee is hereby
COMMENT  granted, provided that the above copyright notices appear in all
COMMENT  copies and that both those copyright notices and this permission
COMMENT  notice appear in supporting documentation, and that the names of
COMMENT  Adobe Systems and Digital Equipment Corporation not be used in
COMMENT  advertising or publicity pertaining to distribution of the software
COMMENT  without specific, written prior permission.  Adobe Systems and
COMMENT  Digital Equipment Corporation make no representations about the
COMMENT  suitability of this software for any purpose.  It is provided "as
COMMENT  is" without express or implied warranty.
COMMENT -
COMMENT  
COMMENT  Translation to ISO8859-2 by Cub Soft;  Petr.Kolar@vslib.cz
COMMENT  
STARTPROPERTIES 28
FOUNDRY "Adobe"
FAMILY_NAME "Times"
WEIGHT_NAME "Bold"
SLANT "I"
SETWIDTH_NAME "Normal"
ADD_STYLE_NAME ""
PIXEL_SIZE 17
POINT_SIZE 120
RESOLUTION_X 100
RESOLUTION_Y 100
SPACING "P"
AVERAGE_WIDTH 86
CHARSET_REGISTRY "ISO8859"
CHARSET_ENCODING "2"
CAP_HEIGHT 11
X_HEIGHT 8
FONT_ASCENT 13
FONT_DESCENT 3
FACE_NAME "Times Bold Italic"

STARTCHAR space
ENCODING 32
SWIDTH 250 0
DWIDTH 4 0
BBX 1 1 0 0
BITMAP
00
ENDCHAR
STARTCHAR exclam
ENCODING 33
SWIDTH 389 0
DWIDTH 6 0
BBX 5 11 1 0
BITMAP
18
18
30
30
20
60
40
40
00
c0
c0
ENDCHAR
STARTCHAR quotedbl
ENCODING 34
SWIDTH 555 0
DWIDTH 9 0
BBX 5 5 3 6
BITMAP
48
48
d8
90
90
ENDCHAR
STARTCHAR numbersign
ENCODING 35
SWIDTH 500 0
DWIDTH 8 0
BBX 8 11 0 0
BITMAP
12
12
12
ff
24
24
24
ff
48
48
48
ENDCHAR
STARTCHAR dollar
ENCODING 36
SWIDTH 500 0
DWIDTH 8 0
BBX 8 13 0 -1
BITMAP
02
1e
25
65
68
78
3c
1e
16
a6
a4
78
40
ENDCHAR
STARTCHAR percent
ENCODING 37
SWIDTH 833 0
DWIDTH 13 0
BBX 11 11 1 0
BITMAP
3080
6f80
c900
ca00
d200
64c0
05a0
0b20
0b20
1340
1180
ENDCHAR
STARTCHAR ampersand
ENCODING 38
SWIDTH 778 0
DWIDTH 13 0
BBX 11 11 1 0
BITMAP
0600
0900
1900
1a00
1c00
3ce0
4c40
ce80
c700
e720
79c0
ENDCHAR
STARTCHAR apostrophe
ENCODING 39
SWIDTH 333 0
DWIDTH 6 0
BBX 3 5 2 6
BITMAP
60
60
20
40
80
ENDCHAR
STARTCHAR parenleft
ENCODING 40
SWIDTH 333 0
DWIDTH 6 0
BBX 5 14 0 -3
BITMAP
08
10
20
60
40
c0
c0
c0
c0
c0
40
40
20
20
ENDCHAR
STARTCHAR parenright
ENCODING 41
SWIDTH 333 0
DWIDTH 6 0
BBX 5 14 0 -3
BITMAP
20
20
10
10
18
18
18
18
18
10
30
20
40
80
ENDCHAR
STARTCHAR asterisk
ENCODING 42
SWIDTH 500 0
DWIDTH 8 0
BBX 5 7 2 4
BITMAP
20
a8
f8
70
f8
a8
20
ENDCHAR
STARTCHAR plus
ENCODING 43
SWIDTH 570 0
DWIDTH 10 0
BBX 7 8 1 1
BITMAP
10
10
10
fe
fe
10
10
10
ENDCHAR
STARTCHAR comma
ENCODING 44
SWIDTH 250 0
DWIDTH 4 0
BBX 3 5 0 -3
BITMAP
60
60
20
40
80
ENDCHAR
STARTCHAR minus
ENCODING 45
SWIDTH 606 0
DWIDTH 10 0
BBX 7 2 1 4
BITMAP
fe
fe
ENDCHAR
STARTCHAR period
ENCODING 46
SWIDTH 250 0
DWIDTH 4 0
BBX 2 2 1 0
BITMAP
c0
c0
ENDCHAR
STARTCHAR slash
ENCODING 47
SWIDTH 278 0
DWIDTH 5 0
BBX 5 12 0 0
BITMAP
08
10
10
10
20
20
20
40
40
40
80
80
ENDCHAR
STARTCHAR zero
ENCODING 48
SWIDTH 500 0
DWIDTH 8 0
BBX 8 11 0 0
BITMAP
0c
12
33
63
63
66
c6
c6
cc
48
30
ENDCHAR
STARTCHAR one
ENCODING 49
SWIDTH 500 0
DWIDTH 8 0
BBX 7 11 0 0
BITMAP
02
1e
06
0c
0c
08
18
18
30
30
f8
ENDCHAR
STARTCHAR two
ENCODING 50
SWIDTH 500 0
DWIDTH 8 0
BBX 8 11 -1 0
BITMAP
1e
27
23
03
02
04
08
10
21
7e
fc
ENDCHAR
STARTCHAR three
ENCODING 51
SWIDTH 500 0
DWIDTH 8 0
BBX 7 11 0 0
BITMAP
1c
2e
06
04
18
3c
0c
04
04
c8
70
ENDCHAR
STARTCHAR four
ENCODING 52
SWIDTH 500 0
DWIDTH 8 0
BBX 8 11 0 0
BITMAP
01
03
07
0e
16
26
4c
ff
fe
18
18
ENDCHAR
STARTCHAR five
ENCODING 53
SWIDTH 500 0
DWIDTH 8 0
BBX 8 11 0 0
BITMAP
1f
1e
30
60
7c
0e
06
06
06
cc
70
ENDCHAR
STARTCHAR six
ENCODING 54
SWIDTH 500 0
DWIDTH 8 0
BBX 8 11 0 0
BITMAP
03
0c
18
30
78
6c
c6
c6
c6
cc
78
ENDCHAR
STARTCHAR seven
ENCODING 55
SWIDTH 500 0
DWIDTH 8 0
BBX 8 11 1 0
BITMAP
7f
7e
84
0c
08
18
10
30
20
60
40
ENDCHAR
STARTCHAR eight
ENCODING 56
SWIDTH 500 0
DWIDTH 8 0
BBX 8 11 0 0
BITMAP
0e
13
31
33
3a
1c
6e
c6
c6
c4
78
ENDCHAR
STARTCHAR nine
ENCODING 57
SWIDTH 500 0
DWIDTH 8 0
BBX 8 11 0 0
BITMAP
1e
33
63
63
63
36
1e
0c
18
30
c0
ENDCHAR
STARTCHAR colon
ENCODING 58
SWIDTH 333 0
DWIDTH 5 0
BBX 3 7 1 0
BITMAP
60
60
00
00
00
c0
c0
ENDCHAR
STARTCHAR semicolon
ENCODING 59
SWIDTH 333 0
DWIDTH 5 0
BBX 4 10 0 -3
BITMAP
30
30
00
00
00
60
60
20
40
80
ENDCHAR
STARTCHAR less
ENCODING 60
SWIDTH 570 0
DWIDTH 10 0
BBX 8 7 1 1
BITMAP
07
1c
70
c0
70
1c
07
ENDCHAR
STARTCHAR equal
ENCODING 61
SWIDTH 570 0
DWIDTH 10 0
BBX 7 5 1 2
BITMAP
fe
fe
00
fe
fe
ENDCHAR
STARTCHAR greater
ENCODING 62
SWIDTH 570 0
DWIDTH 10 0
BBX 8 7 1 1
BITMAP
e0
38
0e
03
0e
38
e0
ENDCHAR
STARTCHAR question
ENCODING 63
SWIDTH 500 0
DWIDTH 8 0
BBX 6 11 1 0
BITMAP
38
4c
4c
0c
18
30
40
40
00
c0
c0
ENDCHAR
STARTCHAR at
ENCODING 64
SWIDTH 832 0
DWIDTH 14 0
BBX 14 13 0 -2
BITMAP
03c0
1c30
3008
61a4
6264
c664
cc44
cc48
ccc8
4dd0
6660
3018
0fe0
ENDCHAR
STARTCHAR A
ENCODING 65
SWIDTH 667 0
DWIDTH 11 0
BBX 11 11 -1 0
BITMAP
0080
0180
0380
0780
0580
0980
1180
1f80
2180
41c0
e3e0
ENDCHAR
STARTCHAR B
ENCODING 66
SWIDTH 667 0
DWIDTH 11 0
BBX 10 11 0 0
BITMAP
3f00
18c0
18c0
38c0
3180
3f00
3180
7180
6180
6300
fc00
ENDCHAR
STARTCHAR C
ENCODING 67
SWIDTH 667 0
DWIDTH 11 0
BBX 11 11 0 0
BITMAP
07a0
1840
3040
7000
6000
e000
e000
e000
6080
6100
1e00
ENDCHAR
STARTCHAR D
ENCODING 68
SWIDTH 722 0
DWIDTH 12 0
BBX 11 11 0 0
BITMAP
3f00
18c0
1860
3860
3060
3060
30c0
70c0
6080
6300
fc00
ENDCHAR
STARTCHAR E
ENCODING 69
SWIDTH 667 0
DWIDTH 11 0
BBX 10 11 0 0
BITMAP
3fc0
1840
1840
3800
3100
3f00
3200
7000
6080
6180
ff00
ENDCHAR
STARTCHAR F
ENCODING 70
SWIDTH 667 0
DWIDTH 11 0
BBX 10 11 0 0
BITMAP
3fc0
1840
1840
3800
3100
3f00
3200
7000
6000
6000
f000
ENDCHAR
STARTCHAR G
ENCODING 71
SWIDTH 722 0
DWIDTH 12 0
BBX 12 11 0 0
BITMAP
07a0
1860
3020
7000
6000
e1f0
e0e0
e0c0
60c0
61c0
1e00
ENDCHAR
STARTCHAR H
ENCODING 72
SWIDTH 778 0
DWIDTH 13 0
BBX 13 11 0 0
BITMAP
3ef8
1c70
1860
38e0
30e0
3fc0
30c0
71c0
6180
6180
f3c0
ENDCHAR
STARTCHAR I
ENCODING 73
SWIDTH 389 0
DWIDTH 6 0
BBX 6 11 0 0
BITMAP
3c
18
18
38
30
30
30
70
60
60
f0
ENDCHAR
STARTCHAR J
ENCODING 74
SWIDTH 500 0
DWIDTH 8 0
BBX 10 13 -2 -2
BITMAP
07c0
0380
0300
0300
0700
0600
0600
0600
0e00
0c00
cc00
d800
7000
ENDCHAR
STARTCHAR K
ENCODING 75
SWIDTH 667 0
DWIDTH 11 0
BBX 10 11 0 0
BITMAP
3dc0
1880
1900
3a00
3400
3e00
3600
7700
6300
6380
f3c0
ENDCHAR
STARTCHAR L
ENCODING 76
SWIDTH 611 0
DWIDTH 10 0
BBX 9 11 0 0
BITMAP
3e00
1800
1800
3800
3000
3000
3000
7000
6080
6180
ff00
ENDCHAR
STARTCHAR M
ENCODING 77
SWIDTH 889 0
DWIDTH 15 0
BBX 15 11 0 0
BITMAP
380e
181c
1c3c
1c3c
2c58
2c98
2e98
4738
4630
4430
e478
ENDCHAR
STARTCHAR N
ENCODING 78
SWIDTH 722 0
DWIDTH 12 0
BBX 12 11 0 0
BITMAP
3870
1820
1c20
3c20
2e40
2640
2740
43c0
4380
4180
e080
ENDCHAR
STARTCHAR O
ENCODING 79
SWIDTH 722 0
DWIDTH 12 0
BBX 10 11 1 0
BITMAP
0700
1880
30c0
70c0
60c0
e1c0
c180
c380
c300
4600
3800
ENDCHAR
STARTCHAR P
ENCODING 80
SWIDTH 611 0
DWIDTH 10 0
BBX 10 11 0 0
BITMAP
3f00
18c0
18c0
38c0
3180
3e00
3000
7000
6000
6000
f800
ENDCHAR
STARTCHAR Q
ENCODING 81
SWIDTH 722 0
DWIDTH 12 0
BBX 10 15 1 -4
BITMAP
0700
1880
30c0
70c0
60c0
c1c0
c180
c380
c300
4600
3800
2040
7080
7f00
8e00
ENDCHAR
STARTCHAR R
ENCODING 82
SWIDTH 667 0
DWIDTH 11 0
BBX 10 11 0 0
BITMAP
3f00
18c0
18c0
38c0
3180
3e00
3600
7700
6300
6300
f1c0
ENDCHAR
STARTCHAR S
ENCODING 83
SWIDTH 556 0
DWIDTH 9 0
BBX 8 11 0 0
BITMAP
1d
23
61
70
78
3c
1e
0e
86
c4
b8
ENDCHAR
STARTCHAR T
ENCODING 84
SWIDTH 611 0
DWIDTH 10 0
BBX 10 11 1 0
BITMAP
ffc0
ccc0
8c80
1c00
1800
1800
1800
3800
3000
3000
f800
ENDCHAR
STARTCHAR U
ENCODING 85
SWIDTH 722 0
DWIDTH 12 0
BBX 12 11 1 0
BITMAP
7cf0
3860
3040
7040
7080
6080
e080
c100
c100
c200
7c00
ENDCHAR
STARTCHAR V
ENCODING 86
SWIDTH 667 0
DWIDTH 11 0
BBX 10 11 1 0
BITMAP
f9c0
6080
6100
6100
7200
3200
3400
3400
3800
1800
1000
ENDCHAR
STARTCHAR W
ENCODING 87
SWIDTH 889 0
DWIDTH 15 0
BBX 15 11 0 0
BITMAP
fbee
6184
6184
6188
73c8
32d0
34d0
34e0
38e0
1840
1040
ENDCHAR
STARTCHAR X
ENCODING 88
SWIDTH 667 0
DWIDTH 11 0
BBX 11 11 0 0
BITMAP
3ce0
1840
1c80
0d00
0e00
0600
0e00
1700
2300
4380
e7c0
ENDCHAR
STARTCHAR Y
ENCODING 89
SWIDTH 611 0
DWIDTH 10 0
BBX 9 11 1 0
BITMAP
f380
6100
7200
3400
3800
1800
1800
3000
3000
3000
f800
ENDCHAR
STARTCHAR Z
ENCODING 90
SWIDTH 611 0
DWIDTH 10 0
BBX 10 11 0 0
BITMAP
3fc0
6380
4300
0600
0e00
0c00
1800
3800
3080
7180
ff00
ENDCHAR
STARTCHAR bracketleft
ENCODING 91
SWIDTH 333 0
DWIDTH 6 0
BBX 7 15 -1 -3
BITMAP
0e
0c
0c
08
18
18
10
30
30
20
60
60
40
c0
e0
ENDCHAR
STARTCHAR backslash
ENCODING 92
SWIDTH 278 0
DWIDTH 5 0
BBX 5 12 1 0
BITMAP
80
40
40
40
20
20
20
10
10
10
08
08
ENDCHAR
STARTCHAR bracketright
ENCODING 93
SWIDTH 333 0
DWIDTH 6 0
BBX 7 15 -1 -3
BITMAP
0e
06
06
04
0c
0c
08
18
18
10
30
30
20
60
e0
ENDCHAR
STARTCHAR asciicircum
ENCODING 94
SWIDTH 570 0
DWIDTH 10 0
BBX 7 7 1 4
BITMAP
10
38
28
6c
44
c6
82
ENDCHAR
STARTCHAR underscore
ENCODING 95
SWIDTH 500 0
DWIDTH 8 0
BBX 8 1 -1 -2
BITMAP
ff
ENDCHAR
STARTCHAR grave
ENCODING 96
SWIDTH 333 0
DWIDTH 6 0
BBX 3 3 3 9
BITMAP
c0
40
20
ENDCHAR
STARTCHAR a
ENCODING 97
SWIDTH 500 0
DWIDTH 8 0
BBX 8 8 0 0
BITMAP
1b
66
66
c6
cc
cc
dd
76
ENDCHAR
STARTCHAR b
ENCODING 98
SWIDTH 500 0
DWIDTH 8 0
BBX 7 11 1 0
BITMAP
30
70
30
6c
76
66
c6
c4
cc
d8
60
ENDCHAR
STARTCHAR c
ENCODING 99
SWIDTH 444 0
DWIDTH 7 0
BBX 6 8 1 0
BITMAP
1c
2c
40
c0
c0
c0
c8
70
ENDCHAR
STARTCHAR d
ENCODING 100
SWIDTH 500 0
DWIDTH 8 0
BBX 8 11 0 0
BITMAP
03
07
03
0f
36
66
46
c6
cc
dd
66
ENDCHAR
STARTCHAR e
ENCODING 101
SWIDTH 444 0
DWIDTH 7 0
BBX 7 8 1 0
BITMAP
1c
66
44
c8
f0
c4
c8
70
ENDCHAR
STARTCHAR f
ENCODING 102
SWIDTH 333 0
DWIDTH 6 0
BBX 11 14 -3 -3
BITMAP
01c0
0360
0300
0300
0f80
0600
0600
0600
0c00
0c00
0c00
1800
d800
7000
ENDCHAR
STARTCHAR g
ENCODING 103
SWIDTH 500 0
DWIDTH 8 0
BBX 8 11 0 -3
BITMAP
1d
26
66
64
38
40
fc
7e
82
84
78
ENDCHAR
STARTCHAR h
ENCODING 104
SWIDTH 556 0
DWIDTH 9 0
BBX 8 11 1 0
BITMAP
30
70
30
66
6e
76
66
cc
cc
cd
ce
ENDCHAR
STARTCHAR i
ENCODING 105
SWIDTH 278 0
DWIDTH 5 0
BBX 4 11 1 0
BITMAP
30
30
00
60
e0
60
60
c0
c0
d0
e0
ENDCHAR
STARTCHAR j
ENCODING 106
SWIDTH 278 0
DWIDTH 5 0
BBX 7 14 -2 -3
BITMAP
06
06
00
04
1c
0c
0c
0c
18
18
18
18
d0
60
ENDCHAR
STARTCHAR k
ENCODING 107
SWIDTH 500 0
DWIDTH 8 0
BBX 7 11 1 0
BITMAP
30
70
30
66
64
68
70
d0
d8
da
cc
ENDCHAR
STARTCHAR l
ENCODING 108
SWIDTH 278 0
DWIDTH 5 0
BBX 4 11 1 0
BITMAP
30
70
30
60
60
60
60
c0
c0
d0
60
ENDCHAR
STARTCHAR m
ENCODING 109
SWIDTH 778 0
DWIDTH 13 0
BBX 12 8 1 0
BITMAP
6ee0
f760
6660
6660
ccc0
ccc0
ccd0
cce0
ENDCHAR
STARTCHAR n
ENCODING 110
SWIDTH 556 0
DWIDTH 9 0
BBX 8 8 1 0
BITMAP
66
ee
76
66
cc
cc
cd
ce
ENDCHAR
STARTCHAR o
ENCODING 111
SWIDTH 500 0
DWIDTH 8 0
BBX 8 8 0 0
BITMAP
0c
32
63
63
c6
c6
4c
30
ENDCHAR
STARTCHAR p
ENCODING 112
SWIDTH 500 0
DWIDTH 8 0
BBX 9 11 -1 -3
BITMAP
1b00
3d80
1980
1980
3100
3300
3600
7800
6000
6000
f000
ENDCHAR
STARTCHAR q
ENCODING 113
SWIDTH 500 0
DWIDTH 8 0
BBX 8 11 0 -3
BITMAP
1b
37
66
46
ce
cc
dc
6c
18
18
3c
ENDCHAR
STARTCHAR r
ENCODING 114
SWIDTH 389 0
DWIDTH 6 0
BBX 6 8 1 0
BITMAP
6c
f4
60
60
c0
c0
c0
c0
ENDCHAR
STARTCHAR s
ENCODING 115
SWIDTH 389 0
DWIDTH 6 0
BBX 6 8 0 0
BITMAP
34
6c
64
70
38
98
d8
b0
ENDCHAR
STARTCHAR t
ENCODING 116
SWIDTH 278 0
DWIDTH 5 0
BBX 5 10 1 0
BITMAP
10
30
f8
60
60
60
c0
c0
d0
60
ENDCHAR
STARTCHAR u
ENCODING 117
SWIDTH 556 0
DWIDTH 9 0
BBX 8 8 1 0
BITMAP
66
e6
66
66
cc
cc
dd
6e
ENDCHAR
STARTCHAR v
ENCODING 118
SWIDTH 444 0
DWIDTH 7 0
BBX 6 8 1 0
BITMAP
4c
ec
64
68
68
70
60
40
ENDCHAR
STARTCHAR w
ENCODING 119
SWIDTH 667 0
DWIDTH 11 0
BBX 10 8 1 0
BITMAP
64c0
e4c0
6440
6e80
7680
6700
4600
4400
ENDCHAR
STARTCHAR x
ENCODING 120
SWIDTH 500 0
DWIDTH 8 0
BBX 8 8 0 0
BITMAP
63
35
38
18
18
3c
ad
c6
ENDCHAR
STARTCHAR y
ENCODING 121
SWIDTH 444 0
DWIDTH 7 0
BBX 8 11 -1 -3
BITMAP
13
39
19
1a
1a
1c
0c
08
10
a0
c0
ENDCHAR
STARTCHAR z
ENCODING 122
SWIDTH 389 0
DWIDTH 6 0
BBX 7 9 0 -1
BITMAP
3e
7c
48
10
20
60
f0
34
18
ENDCHAR
STARTCHAR braceleft
ENCODING 123
SWIDTH 348 0
DWIDTH 6 0
BBX 6 15 0 -3
BITMAP
04
08
18
18
10
30
20
c0
40
40
c0
c0
80
80
40
ENDCHAR
STARTCHAR bar
ENCODING 124
SWIDTH 220 0
DWIDTH 4 0
BBX 1 12 1 0
BITMAP
80
80
80
80
80
80
80
80
80
80
80
80
ENDCHAR
STARTCHAR braceright
ENCODING 125
SWIDTH 348 0
DWIDTH 6 0
BBX 6 15 -1 -3
BITMAP
08
04
04
0c
0c
08
08
0c
10
30
20
60
60
40
80
ENDCHAR
STARTCHAR asciitilde
ENCODING 126
SWIDTH 570 0
DWIDTH 10 0
BBX 8 3 1 3
BITMAP
70
bd
0e
ENDCHAR
STARTCHAR nobreakspace
ENCODING 160
SWIDTH 250 0
DWIDTH 4 0
BBX 1 1 0 0
BITMAP
00
ENDCHAR
STARTCHAR Aogonek
ENCODING 161
SWIDTH 667 0
DWIDTH 11 0
BBX 11 15 -1 -4
BITMAP
0080
0180
0380
0780
0580
0980
1180
1f80
2180
41c0
e3e0
0400
0800
0900
0e00
ENDCHAR
STARTCHAR breve
ENCODING 162
SWIDTH 333 0
DWIDTH 6 0
BBX 5 2 1 9
BITMAP
88
70
ENDCHAR
STARTCHAR Lstroke
ENCODING 163
SWIDTH 611 0
DWIDTH 10 0
BBX 9 11 0 0
BITMAP
3e00
1800
1800
3a00
3c00
3000
f000
7000
6080
6180
ff00
ENDCHAR
STARTCHAR currency
ENCODING 164
SWIDTH 500 0
DWIDTH 8 0
BBX 7 8 1 1
BITMAP
ba
7c
c6
82
82
c6
7c
ba
ENDCHAR
STARTCHAR Lcaron
ENCODING 165
SWIDTH 720 0
DWIDTH 12 0
BBX 11 12 0 0
BITMAP
0060
3e60
1820
1840
3880
3000
3000
3000
7000
6080
6180
ff00
ENDCHAR
STARTCHAR Sacute
ENCODING 166
SWIDTH 556 0
DWIDTH 9 0
BBX 8 15 0 0
BITMAP
03
02
04
00
1d
23
61
70
78
3c
1e
0e
86
c4
b8
ENDCHAR
STARTCHAR section
ENCODING 167
SWIDTH 500 0
DWIDTH 8 0
BBX 7 14 0 -3
BITMAP
1c
26
26
30
38
3c
4c
64
78
38
18
c8
c8
70
ENDCHAR
STARTCHAR diaeresis
ENCODING 168
SWIDTH 333 0
DWIDTH 6 0
BBX 6 2 2 9
BITMAP
cc
cc
ENDCHAR
STARTCHAR Scaron
ENCODING 169
SWIDTH 556 0
DWIDTH 9 0
BBX 8 15 0 0
BITMAP
11
0e
04
00
1d
23
61
70
78
3c
1e
0e
86
c4
b8
ENDCHAR
STARTCHAR Scedilla
ENCODING 170
SWIDTH 556 0
DWIDTH 9 0
BBX 8 15 0 -4
BITMAP
1d
23
61
70
78
3c
1e
0e
86
c4
b8
10
18
44
38
ENDCHAR
STARTCHAR Tcaron
ENCODING 171
SWIDTH 611 0
DWIDTH 10 0
BBX 10 15 1 0
BITMAP
1100
0e00
0400
0000
ffc0
ccc0
8c80
1c00
1800
1800
1800
3800
3000
3000
f800
ENDCHAR
STARTCHAR Zacute
ENCODING 172
SWIDTH 611 0
DWIDTH 10 0
BBX 10 15 0 0
BITMAP
0300
0200
0400
0000
3fc0
6380
4300
0600
0e00
0c00
1800
3800
3080
7180
ff00
ENDCHAR
STARTCHAR hyphen
ENCODING 173
SWIDTH 333 0
DWIDTH 5 0
BBX 4 2 1 3
BITMAP
f0
f0
ENDCHAR
STARTCHAR Zcaron
ENCODING 174
SWIDTH 611 0
DWIDTH 10 0
BBX 10 15 0 0
BITMAP
1100
0e00
0400
0000
3fc0
6380
4300
0600
0e00
0c00
1800
3800
3080
7180
ff00
ENDCHAR
STARTCHAR Zabovedot
ENCODING 175
SWIDTH 611 0
DWIDTH 10 0
BBX 10 14 0 0
BITMAP
0600
0600
0000
3fc0
6380
4300
0600
0e00
0c00
1800
3800
3080
7180
ff00
ENDCHAR
STARTCHAR degree
ENCODING 176
SWIDTH 400 0
DWIDTH 7 0
BBX 5 5 1 6
BITMAP
70
88
88
88
70
ENDCHAR
STARTCHAR aogonek
ENCODING 177
SWIDTH 500 0
DWIDTH 8 0
BBX 8 12 0 -4
BITMAP
1b
66
66
c6
cc
cc
dd
76
10
20
24
38
ENDCHAR
STARTCHAR ogonek
ENCODING 178
SWIDTH 333 0
DWIDTH 6 0
BBX 4 4 1 -3
BITMAP
40
80
90
e0
ENDCHAR
STARTCHAR lstroke
ENCODING 179
SWIDTH 278 0
DWIDTH 5 0
BBX 5 11 0 0
BITMAP
18
38
18
30
38
30
70
e0
60
68
30
ENDCHAR
STARTCHAR acute
ENCODING 180
SWIDTH 333 0
DWIDTH 6 0
BBX 3 3 3 9
BITMAP
60
40
80
ENDCHAR
STARTCHAR lcaron
ENCODING 181
SWIDTH 540 0
DWIDTH 9 0
BBX 8 12 1 0
BITMAP
03
33
71
32
64
60
60
60
c0
c0
d0
60
ENDCHAR
STARTCHAR sacute
ENCODING 182
SWIDTH 389 0
DWIDTH 6 0
BBX 6 12 0 0
BITMAP
0c
08
10
00
34
6c
64
70
38
98
d8
b0
ENDCHAR
STARTCHAR caron
ENCODING 183
SWIDTH 333 0
DWIDTH 6 0
BBX 5 3 1 9
BITMAP
88
70
20
ENDCHAR
STARTCHAR cedilla
ENCODING 184
SWIDTH 333 0
DWIDTH 6 0
BBX 5 4 0 -3
BITMAP
20
30
88
70
ENDCHAR
STARTCHAR scaron
ENCODING 185
SWIDTH 389 0
DWIDTH 6 0
BBX 6 12 0 0
BITMAP
44
38
10
00
34
6c
64
70
38
98
d8
b0
ENDCHAR
STARTCHAR scedilla
ENCODING 186
SWIDTH 389 0
DWIDTH 6 0
BBX 6 12 0 -4
BITMAP
34
6c
64
70
38
98
d8
b0
20
30
88
70
ENDCHAR
STARTCHAR tcaron
ENCODING 187
SWIDTH 480 0
DWIDTH 8 0
BBX 8 14 1 0
BITMAP
03
03
01
02
14
30
f8
60
60
60
c0
c0
d0
60
ENDCHAR
STARTCHAR zacute
ENCODING 188
SWIDTH 389 0
DWIDTH 6 0
BBX 7 13 0 -1
BITMAP
0c
08
10
00
3e
7c
48
10
20
60
f0
34
18
ENDCHAR
STARTCHAR doubleacute
ENCODING 189
SWIDTH 333 0
DWIDTH 6 0
BBX 6 3 0 9
BITMAP
6c
48
90
ENDCHAR
STARTCHAR zcaron
ENCODING 190
SWIDTH 389 0
DWIDTH 6 0
BBX 7 13 0 -1
BITMAP
44
38
10
00
3e
7c
48
10
20
60
f0
34
18
ENDCHAR
STARTCHAR zabovedot
ENCODING 191
SWIDTH 389 0
DWIDTH 6 0
BBX 7 12 0 -1
BITMAP
18
18
00
3e
7c
48
10
20
60
f0
34
18
ENDCHAR
STARTCHAR Racute
ENCODING 192
SWIDTH 667 0
DWIDTH 11 0
BBX 10 15 0 0
BITMAP
0180
0100
0200
0000
3f00
18c0
18c0
38c0
3180
3e00
3600
7700
6300
6300
f1c0
ENDCHAR
STARTCHAR Aacute
ENCODING 193
SWIDTH 667 0
DWIDTH 11 0
BBX 11 15 -1 0
BITMAP
00c0
0080
0100
0000
0100
0100
0300
0780
0580
0980
1180
1f80
2180
41c0
e3e0
ENDCHAR
STARTCHAR Acircumflex
ENCODING 194
SWIDTH 667 0
DWIDTH 11 0
BBX 11 15 -1 0
BITMAP
0080
01c0
0220
0000
0100
0100
0300
0780
0580
0980
1180
1f80
2180
41c0
e3e0
ENDCHAR
STARTCHAR Abreve
ENCODING 195
SWIDTH 667 0
DWIDTH 11 0
BBX 11 14 -1 0
BITMAP
0220
01c0
0000
0080
0180
0380
0780
0580
0980
1180
1f80
2180
41c0
e3e0
ENDCHAR
STARTCHAR Adiaeresis
ENCODING 196
SWIDTH 667 0
DWIDTH 11 0
BBX 11 14 -1 0
BITMAP
0660
0660
0000
0100
0100
0300
0780
0580
0980
1180
1f80
2180
41c0
e3e0
ENDCHAR
STARTCHAR Lacute
ENCODING 197
SWIDTH 611 0
DWIDTH 10 0
BBX 9 15 0 0
BITMAP
0600
0400
0800
0000
3e00
1800
1800
3800
3000
3000
3000
7000
6080
6180
ff00
ENDCHAR
STARTCHAR Cacute
ENCODING 198
SWIDTH 667 0
DWIDTH 11 0
BBX 11 15 0 0
BITMAP
00c0
0080
0100
0000
07a0
1840
3040
7000
6000
e000
e000
e000
6080
6100
1e00
ENDCHAR
STARTCHAR Ccedilla
ENCODING 199
SWIDTH 667 0
DWIDTH 11 0
BBX 11 14 0 -3
BITMAP
07a0
1840
3040
7000
6000
e000
e000
e000
6080
6100
1e00
0c00
2200
1c00
ENDCHAR
STARTCHAR Ccaron
ENCODING 200
SWIDTH 667 0
DWIDTH 11 0
BBX 11 15 0 0
BITMAP
0440
0380
0100
0000
07a0
1840
3040
7000
6000
e000
e000
e000
6080
6100
1e00
ENDCHAR
STARTCHAR Eacute
ENCODING 201
SWIDTH 667 0
DWIDTH 11 0
BBX 10 15 0 0
BITMAP
0180
0100
0200
0000
3fc0
1840
1800
3900
3100
3f00
3200
7200
6080
6180
ff00
ENDCHAR
STARTCHAR Eogonek
ENCODING 202
SWIDTH 667 0
DWIDTH 11 0
BBX 10 15 0 -4
BITMAP
3fc0
1840
1840
3800
3100
3f00
3200
7000
6080
6180
ff00
0800
1000
1200
1c00
ENDCHAR
STARTCHAR Ediaeresis
ENCODING 203
SWIDTH 667 0
DWIDTH 11 0
BBX 10 14 0 0
BITMAP
0cc0
0cc0
0000
3fc0
1840
1800
3900
3100
3f00
3200
7200
6080
6180
ff00
ENDCHAR
STARTCHAR Ecaron
ENCODING 204
SWIDTH 667 0
DWIDTH 11 0
BBX 10 15 0 0
BITMAP
0880
0700
0200
0000
3fc0
1840
1840
3800
3100
3f00
3200
7000
6080
6180
ff00
ENDCHAR
STARTCHAR Iacute
ENCODING 205
SWIDTH 389 0
DWIDTH 6 0
BBX 7 15 0 0
BITMAP
06
04
08
00
3c
18
18
38
30
30
30
70
60
60
f0
ENDCHAR
STARTCHAR Icircumflex
ENCODING 206
SWIDTH 389 0
DWIDTH 6 0
BBX 7 15 0 0
BITMAP
08
1c
22
00
3c
18
18
38
30
30
30
70
60
60
f0
ENDCHAR
STARTCHAR Dcaron
ENCODING 207
SWIDTH 722 0
DWIDTH 12 0
BBX 11 15 0 0
BITMAP
0880
0700
0200
0000
3f00
18c0
1860
3860
3060
3060
30c0
70c0
6080
6300
fc00
ENDCHAR
STARTCHAR Dstroke
ENCODING 208
SWIDTH 722 0
DWIDTH 12 0
BBX 11 11 0 0
BITMAP
3f00
18c0
1840
3860
3060
fc60
3060
60c0
60c0
6300
fc00
ENDCHAR
STARTCHAR Nacute
ENCODING 209
SWIDTH 722 0
DWIDTH 12 0
BBX 12 15 0 0
BITMAP
00c0
0080
0100
0000
3870
1820
1c20
3c20
2e40
2640
2740
43c0
4380
4180
e080
ENDCHAR
STARTCHAR Ncaron
ENCODING 210
SWIDTH 722 0
DWIDTH 12 0
BBX 12 15 0 0
BITMAP
0440
0380
0100
0000
3870
1820
1c20
3c20
2e40
2640
2740
43c0
4380
4180
e080
ENDCHAR
STARTCHAR Oacute
ENCODING 211
SWIDTH 722 0
DWIDTH 12 0
BBX 10 15 1 0
BITMAP
00c0
0080
0100
0000
0700
1880
30c0
70c0
60c0
e1c0
c180
c380
c300
4600
3800
ENDCHAR
STARTCHAR Ocircumflex
ENCODING 212
SWIDTH 722 0
DWIDTH 12 0
BBX 10 15 1 0
BITMAP
0100
0380
0440
0000
0700
1880
30c0
70c0
60c0
e1c0
c180
c380
c300
4600
3800
ENDCHAR
STARTCHAR Odoubleacute
ENCODING 213
SWIDTH 722 0
DWIDTH 12 0
BBX 11 15 1 0
BITMAP
0360
0240
0480
0000
0700
1880
30c0
70c0
60c0
e1c0
c180
c380
c300
4600
3800
ENDCHAR
STARTCHAR Odiaeresis
ENCODING 214
SWIDTH 722 0
DWIDTH 12 0
BBX 10 14 1 0
BITMAP
0cc0
0cc0
0000
0700
1880
30c0
70c0
60c0
e1c0
c180
c380
c300
4600
3800
ENDCHAR
STARTCHAR multiply
ENCODING 215
SWIDTH 570 0
DWIDTH 10 0
BBX 8 9 1 0
BITMAP
81
c3
66
3c
18
3c
66
c3
81
ENDCHAR
STARTCHAR Rcaron
ENCODING 216
SWIDTH 667 0
DWIDTH 11 0
BBX 10 15 0 0
BITMAP
0880
0700
0200
0000
3f00
18c0
18c0
38c0
3180
3e00
3600
7700
6300
6300
f1c0
ENDCHAR
STARTCHAR Uring
ENCODING 217
SWIDTH 722 0
DWIDTH 12 0
BBX 12 15 1 0
BITMAP
0300
0480
0300
0000
7cf0
3860
3040
7040
7080
6080
e080
c100
c100
c200
7c00
ENDCHAR
STARTCHAR Uacute
ENCODING 218
SWIDTH 722 0
DWIDTH 12 0
BBX 11 15 1 0
BITMAP
0180
0100
0200
0000
7ce0
3840
3040
7040
7080
6080
e080
c100
c100
c200
7c00
ENDCHAR
STARTCHAR Udoubleacute
ENCODING 219
SWIDTH 722 0
DWIDTH 12 0
BBX 12 15 1 0
BITMAP
0360
0240
0480
0000
7cf0
3860
3040
7040
7080
6080
e080
c100
c100
c200
7c00
ENDCHAR
STARTCHAR Udiaeresis
ENCODING 220
SWIDTH 722 0
DWIDTH 12 0
BBX 11 14 1 0
BITMAP
0cc0
0cc0
0000
7ce0
3840
3040
7040
7080
6080
e080
c100
c100
c200
7c00
ENDCHAR
STARTCHAR Yacute
ENCODING 221
SWIDTH 611 0
DWIDTH 10 0
BBX 9 15 1 0
BITMAP
0600
0400
0800
0000
f380
6100
7200
3400
3800
1800
1800
3000
3000
3000
f800
ENDCHAR
STARTCHAR Tcedilla
ENCODING 222
SWIDTH 611 0
DWIDTH 10 0
BBX 10 15 1 -4
BITMAP
ffc0
ccc0
8c80
1c00
1800
1800
1800
3800
3000
3000
f800
0800
0c00
2200
1c00
ENDCHAR
STARTCHAR ssharp
ENCODING 223
SWIDTH 500 0
DWIDTH 8 0
BBX 12 15 -3 -3
BITMAP
00e0
0130
0330
0320
0240
06c0
0660
0660
0660
0c60
0c40
0d80
1800
d800
7000
ENDCHAR
STARTCHAR racute
ENCODING 224
SWIDTH 389 0
DWIDTH 6 0
BBX 6 12 1 0
BITMAP
18
10
20
00
6c
f4
60
60
c0
c0
c0
c0
ENDCHAR
STARTCHAR aacute
ENCODING 225
SWIDTH 500 0
DWIDTH 8 0
BBX 8 12 0 0
BITMAP
06
04
08
00
1b
66
66
c6
cc
cc
dd
76
ENDCHAR
STARTCHAR acircumflex
ENCODING 226
SWIDTH 500 0
DWIDTH 8 0
BBX 8 12 0 0
BITMAP
08
1c
22
00
1b
66
66
c6
cc
cc
dd
76
ENDCHAR
STARTCHAR abreve
ENCODING 227
SWIDTH 500 0
DWIDTH 8 0
BBX 8 11 0 0
BITMAP
22
1c
00
1b
66
66
c6
cc
cc
dd
76
ENDCHAR
STARTCHAR adiaeresis
ENCODING 228
SWIDTH 500 0
DWIDTH 8 0
BBX 8 11 0 0
BITMAP
33
33
00
1b
66
66
c6
cc
cc
dd
76
ENDCHAR
STARTCHAR lacute
ENCODING 229
SWIDTH 278 0
DWIDTH 5 0
BBX 5 15 1 0
BITMAP
18
10
20
00
30
70
30
60
60
60
60
c0
c0
d0
60
ENDCHAR
STARTCHAR cacute
ENCODING 230
SWIDTH 444 0
DWIDTH 7 0
BBX 6 12 1 0
BITMAP
0c
08
10
00
1c
2c
40
c0
c0
c0
c8
70
ENDCHAR
STARTCHAR ccedilla
ENCODING 231
SWIDTH 444 0
DWIDTH 7 0
BBX 6 11 1 -3
BITMAP
1c
2c
40
c0
c0
c0
c8
70
30
88
70
ENDCHAR
STARTCHAR ccaron
ENCODING 232
SWIDTH 444 0
DWIDTH 7 0
BBX 6 12 1 0
BITMAP
44
38
10
00
1c
2c
40
c0
c0
c0
c8
70
ENDCHAR
STARTCHAR eacute
ENCODING 233
SWIDTH 444 0
DWIDTH 7 0
BBX 7 12 0 0
BITMAP
06
04
08
00
1c
26
44
c8
f0
c4
c8
70
ENDCHAR
STARTCHAR eogonek
ENCODING 234
SWIDTH 444 0
DWIDTH 7 0
BBX 7 12 1 -4
BITMAP
1c
66
44
c8
f0
c4
c8
70
10
20
24
38
ENDCHAR
STARTCHAR ediaeresis
ENCODING 235
SWIDTH 444 0
DWIDTH 7 0
BBX 8 11 0 0
BITMAP
33
33
00
1c
26
44
c8
f0
c4
c8
70
ENDCHAR
STARTCHAR ecaron
ENCODING 236
SWIDTH 444 0
DWIDTH 7 0
BBX 7 12 1 0
BITMAP
44
38
10
00
1c
66
44
c8
f0
c4
c8
70
ENDCHAR
STARTCHAR iacute
ENCODING 237
SWIDTH 278 0
DWIDTH 5 0
BBX 4 12 1 0
BITMAP
30
20
40
00
60
e0
60
60
c0
c0
d0
e0
ENDCHAR
STARTCHAR icircumflex
ENCODING 238
SWIDTH 278 0
DWIDTH 5 0
BBX 5 12 1 0
BITMAP
20
70
88
00
60
e0
60
60
c0
c0
d0
e0
ENDCHAR
STARTCHAR dcaron
ENCODING 239
SWIDTH 720 0
DWIDTH 12 0
BBX 12 12 0 0
BITMAP
0030
0330
0710
0320
0f40
3600
6600
4600
c600
cc00
dd00
6600
ENDCHAR
STARTCHAR dstroke
ENCODING 240
SWIDTH 660 0
DWIDTH 11 0
BBX 11 11 0 0
BITMAP
0300
0300
7fe0
0f00
3600
6600
4600
c600
cc00
dd00
6600
ENDCHAR
STARTCHAR nacute
ENCODING 241
SWIDTH 556 0
DWIDTH 9 0
BBX 8 12 1 0
BITMAP
0c
08
10
00
66
ee
76
66
cc
cc
cd
ce
ENDCHAR
STARTCHAR ncaron
ENCODING 242
SWIDTH 556 0
DWIDTH 9 0
BBX 8 12 1 0
BITMAP
44
38
10
00
66
ee
76
66
cc
cc
cd
ce
ENDCHAR
STARTCHAR oacute
ENCODING 243
SWIDTH 500 0
DWIDTH 8 0
BBX 8 12 0 0
BITMAP
03
02
04
00
0c
32
63
63
c6
c6
4c
30
ENDCHAR
STARTCHAR ocircumflex
ENCODING 244
SWIDTH 500 0
DWIDTH 8 0
BBX 8 12 0 0
BITMAP
04
0e
11
00
0c
32
63
63
c6
c6
4c
30
ENDCHAR
STARTCHAR odoubleacute
ENCODING 245
SWIDTH 500 0
DWIDTH 8 0
BBX 9 12 0 0
BITMAP
0d80
0900
1200
0000
0c00
3200
6300
6300
c600
c600
4c00
3000
ENDCHAR
STARTCHAR odiaeresis
ENCODING 246
SWIDTH 500 0
DWIDTH 8 0
BBX 9 11 0 0
BITMAP
1980
1980
0000
0c00
3200
6300
6300
c600
c600
4c00
3000
ENDCHAR
STARTCHAR division
ENCODING 247
SWIDTH 570 0
DWIDTH 10 0
BBX 8 8 1 1
BITMAP
18
18
00
ff
ff
00
18
18
ENDCHAR
STARTCHAR rcaron
ENCODING 248
SWIDTH 389 0
DWIDTH 6 0
BBX 6 12 1 0
BITMAP
88
70
20
00
6c
f4
60
60
c0
c0
c0
c0
ENDCHAR
STARTCHAR uring
ENCODING 249
SWIDTH 556 0
DWIDTH 9 0
BBX 8 12 1 0
BITMAP
18
24
18
00
66
e6
66
66
cc
cc
dd
6e
ENDCHAR
STARTCHAR uacute
ENCODING 250
SWIDTH 556 0
DWIDTH 9 0
BBX 8 12 1 0
BITMAP
0c
08
10
00
66
e6
66
66
cc
cc
dd
6e
ENDCHAR
STARTCHAR udoubleacute
ENCODING 251
SWIDTH 556 0
DWIDTH 9 0
BBX 8 12 1 0
BITMAP
1b
12
24
00
66
e6
66
66
cc
cc
dd
6e
ENDCHAR
STARTCHAR udiaeresis
ENCODING 252
SWIDTH 556 0
DWIDTH 9 0
BBX 8 11 1 0
BITMAP
66
66
00
66
e6
66
66
cc
cc
dd
6e
ENDCHAR
STARTCHAR yacute
ENCODING 253
SWIDTH 444 0
DWIDTH 7 0
BBX 8 15 -1 -3
BITMAP
06
04
08
00
13
39
19
1a
1a
1c
0c
08
10
a0
c0
ENDCHAR
STARTCHAR tcedilla
ENCODING 254
SWIDTH 278 0
DWIDTH 5 0
BBX 5 14 1 -4
BITMAP
10
30
f8
60
60
60
c0
c0
d0
60
20
30
88
70
ENDCHAR
STARTCHAR abovedot
ENCODING 255
SWIDTH 333 0
DWIDTH 6 0
BBX 2 2 3 9
BITMAP
c0
c0
ENDCHAR
ENDFONT
